<svg width="169" height="150" viewBox="0 0 169 150" fill="none" xmlns="http://www.w3.org/2000/svg">
<path fill-rule="evenodd" clip-rule="evenodd" d="M125.974 46.6898C126.014 46.7715 126.081 46.8376 126.162 46.878C126.368 46.98 126.452 47.2295 126.35 47.4354L78.5254 144.021C76.0747 148.97 70.0758 150.996 65.1265 148.545L5.56484 119.052C0.615507 116.602 -1.41004 110.603 1.04066 105.653L48.8656 9.06821C48.9675 8.86233 49.2171 8.77808 49.4229 8.88002C49.5046 8.92044 49.5972 8.93295 49.6867 8.91562L94.7424 0.183414C99.1618 -0.67309 103.609 1.52882 105.606 5.56279L125.974 46.6898ZM93.0724 17.216C95.6243 18.4796 98.7174 17.4352 99.981 14.8833C101.245 12.3314 100.2 9.23827 97.6483 7.97467C95.0964 6.71107 92.0033 7.75545 90.7397 10.3074C89.4761 12.8593 90.5205 15.9524 93.0724 17.216Z" fill="#0EA7BF"/>
<path d="M54.8243 105.518C57.8354 107.009 60.7718 107.69 63.6335 107.559C66.5666 107.405 69.2937 106.404 71.8148 104.558L81.6367 109.421C77.4061 113.278 72.5966 115.479 67.2083 116.025C61.82 116.57 56.4732 115.53 51.1679 112.903C45.5759 110.134 41.3507 106.167 38.4923 101.002C35.6576 95.7898 34.6342 90.2244 35.4222 84.3062L28.8265 81.0402L31.5954 75.4482L36.9007 78.0752C37.4677 76.6896 37.9406 75.6144 38.3193 74.8497C38.6979 74.085 39.2664 73.0571 40.0246 71.7662L34.7194 69.1393L37.4883 63.5473L44.084 66.8132C48.3132 62.5989 53.348 60.063 59.1883 59.2055C65.0523 58.3003 70.7803 59.2321 76.3723 62.001C81.6297 64.6043 85.6628 68.2379 88.4716 72.9019C91.3518 77.5418 92.5406 82.713 92.038 88.4155L82.2161 83.5521C82.1563 80.4278 81.2869 77.6763 79.6081 75.2976C78.0007 72.8949 75.6915 70.948 72.6804 69.457C69.1913 67.7294 65.7062 67.0155 62.2251 67.3152C58.7917 67.6386 55.6602 68.9149 52.8305 71.1441L68.101 78.7054L65.3321 84.2974L48.4843 75.9551C47.8439 76.8878 47.2516 77.9038 46.7073 79.0031C46.163 80.1024 45.714 81.1894 45.3604 82.264L62.2081 90.6063L59.4392 96.1984L44.1687 88.637C44.0875 92.2867 44.9589 95.5748 46.783 98.5014C48.6548 101.452 51.3353 103.791 54.8243 105.518Z" fill="white"/>
<path d="M95.7586 12.8661C100.782 19.212 114.796 27.4 133.438 12.8661C146.664 2.55382 158.425 3.3471 165.961 8.89977" stroke="white" stroke-width="5" stroke-linecap="round"/>
</svg>
