<svg width="32" height="22" viewBox="0 0 32 22" fill="none" xmlns="http://www.w3.org/2000/svg">
<path d="M20.3787 1.07549C19.831 1.61243 19.831 2.50376 20.3679 3.05144L26.8972 9.59141H2.04742C1.28496 9.59141 0.662109 10.2143 0.662109 10.9875C0.662109 11.7607 1.28496 12.3835 2.04742 12.3835H26.8864L20.3572 18.9235C19.8202 19.4712 19.831 20.3517 20.3679 20.8994C20.9156 21.4364 21.7854 21.4364 22.3331 20.8887L31.182 11.9754C31.3001 11.8466 31.3967 11.707 31.4719 11.5351C31.5471 11.3633 31.5793 11.1808 31.5793 10.9982C31.5793 10.6331 31.4397 10.2894 31.182 10.021L22.3331 1.1077C21.8069 0.549269 20.9263 0.53853 20.3787 1.07548V1.07549Z" fill="#0EA7BF"/>
</svg>
