<svg width="36" height="36" viewBox="0 0 36 36" fill="none" xmlns="http://www.w3.org/2000/svg">
<rect width="36" height="36" fill="white"/>
<path fill-rule="evenodd" clip-rule="evenodd" d="M15.08 25.7862C22.3334 25.7862 26.28 19.8129 26.28 14.5862C26.28 14.3729 26.28 14.2662 26.28 14.0529C27.0267 13.5196 27.6667 12.7729 28.2 12.0262C27.4533 12.3462 26.7067 12.5596 25.96 12.6662C26.8134 12.1329 27.3467 11.3862 27.6667 10.5329C26.92 10.9596 26.0667 11.2796 25.2134 11.4929C24.4667 10.6396 23.4 10.2129 22.3334 10.2129C20.2 10.2129 18.3867 12.0262 18.3867 14.1596C18.3867 14.4796 18.3867 14.7996 18.4933 15.0129C15.1867 14.7996 12.3067 13.3062 10.3867 10.8529C10.0667 11.3862 9.85334 12.1329 9.85334 12.8796C9.85334 14.2662 10.6 15.4396 11.56 16.1862C10.92 16.1862 10.28 15.9729 9.74667 15.6529C9.74667 17.5729 11.1333 19.1729 12.9467 19.4929C12.6267 19.5996 12.3067 19.5996 11.88 19.5996C11.6667 19.5996 11.3467 19.5996 11.1333 19.4929C11.6667 21.0929 13.0533 22.1596 14.8667 22.2662C13.48 23.3329 11.7733 23.9729 9.96 23.9729C9.64 23.9729 9.32 23.9729 9 23.8662C10.7067 25.1462 12.84 25.7862 15.08 25.7862" fill="#132D3F"/>
</svg>
