<svg width="36" height="36" viewBox="0 0 36 36" fill="none" xmlns="http://www.w3.org/2000/svg">
<rect width="36" height="36" fill="white"/>
<path fill-rule="evenodd" clip-rule="evenodd" d="M13.2978 27.5994H9.31715V14.7806H13.2978V27.5994ZM11.3053 13.032C10.0325 13.032 9 11.9776 9 10.7048C9 9.43154 10.0321 8.39941 11.3053 8.39941C12.5786 8.39941 13.6107 9.43155 13.6107 10.7048C13.6107 11.9776 12.5778 13.032 11.3053 13.032ZM28.1962 27.5994H24.2241V21.3593C24.2241 19.8721 24.1941 17.9649 22.1545 17.9649C20.0848 17.9649 19.7677 19.5807 19.7677 21.2521V27.5994H15.7913V14.7806H19.6091V16.5292H19.6648C20.1963 15.522 21.4945 14.4591 23.4312 14.4591C27.4599 14.4591 28.2005 17.112 28.2005 20.5578V27.5994L28.1962 27.5994Z" fill="#132D3F"/>
</svg>
