<svg width="36" height="36" viewBox="0 0 36 36" fill="none" xmlns="http://www.w3.org/2000/svg">
<rect width="36" height="36" fill="white"/>
<path fill-rule="evenodd" clip-rule="evenodd" d="M17.6 9.70667C20.16 9.70667 20.48 9.70667 21.44 9.81334C22.4 9.81334 22.9333 10.0267 23.2534 10.1333C23.68 10.3467 24 10.56 24.32 10.88C24.64 11.2 24.8533 11.52 25.0667 11.9467C25.1734 12.2667 25.3867 12.8 25.3867 13.76C25.3867 14.72 25.4934 15.04 25.4934 17.6C25.4934 20.16 25.4934 20.48 25.3867 21.44C25.3867 22.4 25.1733 22.9333 25.0667 23.2533C24.8534 23.68 24.64 24 24.32 24.32C24 24.64 23.68 24.8533 23.2534 25.0667C22.9333 25.1733 22.4 25.3867 21.44 25.3867C20.48 25.3867 20.16 25.4934 17.6 25.4934C15.04 25.4934 14.72 25.4933 13.76 25.3867C12.8 25.3867 12.2667 25.1733 11.9467 25.0667C11.52 24.8533 11.2 24.64 10.88 24.32C10.56 24 10.3467 23.68 10.1334 23.2533C10.0267 22.9333 9.81335 22.4 9.81335 21.44C9.81335 20.48 9.70668 20.16 9.70668 17.6C9.70668 15.04 9.70668 14.72 9.81335 13.76C9.81335 12.8 10.0267 12.2667 10.1334 11.9467C10.3467 11.52 10.56 11.2 10.88 10.88C11.2 10.4533 11.52 10.24 11.9467 10.1333C12.2667 10.0267 12.8 9.81334 13.76 9.81334C14.72 9.70667 15.04 9.70667 17.6 9.70667ZM17.6 8C15.04 8 14.6133 8 13.6533 8.10667C12.5867 8.10667 11.9467 8.32 11.3067 8.53334C10.6667 8.74667 10.1333 9.06667 9.60001 9.60001C9.06668 10.1333 8.74668 10.6667 8.53334 11.3067C8.21334 11.9467 8.10667 12.5867 8.10667 13.6533C8 14.6133 8 15.04 8 17.6C8 20.16 8 20.5867 8.10667 21.5467C8.10667 22.6134 8.32 23.2534 8.53334 23.8934C8.74667 24.5334 9.06667 25.0667 9.60001 25.6C10.1333 26.1334 10.6667 26.4534 11.3067 26.6667C11.9467 26.88 12.5867 27.0934 13.6533 27.0934C14.6133 27.2 15.04 27.2 17.6 27.2C20.16 27.2 20.5867 27.2 21.5467 27.0934C22.6134 27.0934 23.2534 26.88 23.8934 26.6667C24.5334 26.4534 25.0667 26.1334 25.6 25.6C26.1334 25.0667 26.4534 24.5334 26.6667 23.8934C26.88 23.2534 27.0934 22.6134 27.0934 21.5467C27.0934 20.48 27.2 20.16 27.2 17.6C27.2 15.04 27.2 14.6133 27.0934 13.6533C27.0934 12.5867 26.88 11.9467 26.6667 11.3067C26.4534 10.6667 26.1334 10.1333 25.6 9.60001C25.0667 9.06668 24.5334 8.74668 23.8934 8.53334C23.2534 8.32001 22.6134 8.10667 21.5467 8.10667C20.5867 8 20.16 8 17.6 8ZM17.6 12.6933C14.8267 12.6933 12.6933 14.8267 12.6933 17.6C12.6933 20.3733 14.9333 22.5067 17.6 22.5067C20.3734 22.5067 22.5067 20.2667 22.5067 17.6C22.5067 14.9333 20.3734 12.6933 17.6 12.6933ZM17.6 20.8C15.7867 20.8 14.4 19.4133 14.4 17.6C14.4 15.7867 15.7867 14.4 17.6 14.4C19.4134 14.4 20.8 15.7867 20.8 17.6C20.8 19.4133 19.4134 20.8 17.6 20.8ZM22.72 11.3067C22.08 11.3067 21.5467 11.84 21.5467 12.48C21.5467 13.12 22.08 13.6533 22.72 13.6533C23.36 13.6533 23.8933 13.12 23.8933 12.48C23.8933 11.84 23.36 11.3067 22.72 11.3067Z" fill="#132D3F"/>
</svg>
