<svg width="204" height="252" viewBox="0 0 204 252" fill="none" xmlns="http://www.w3.org/2000/svg">
<rect width="204" height="252" rx="7" fill="#0EA7BF"/>
<path d="M105 30H183" stroke="white" stroke-width="5" stroke-linecap="round"/>
<path d="M157.5 45H105" stroke="white" stroke-width="5" stroke-linecap="round"/>
<path d="M105 89H181" stroke="white" stroke-width="5" stroke-linecap="round"/>
<path d="M170 104H105" stroke="white" stroke-width="5" stroke-linecap="round"/>
<path d="M105 148H153.5" stroke="white" stroke-width="5" stroke-linecap="round"/>
<path d="M105 207H175" stroke="white" stroke-width="5" stroke-linecap="round"/>
<path d="M105 222H130" stroke="white" stroke-width="5" stroke-linecap="round"/>
<path d="M54 198H21V230.5" stroke="white" stroke-width="5" stroke-linecap="round"/>
<path d="M30 213.434L40.6931 227.5L72.5 195" stroke="white" stroke-width="5" stroke-linecap="round"/>
<path d="M54 139H21V171.5" stroke="white" stroke-width="5" stroke-linecap="round"/>
<path d="M30 154.434L40.6931 168.5L72.5 136" stroke="white" stroke-width="5" stroke-linecap="round"/>
<path d="M54 80H21V112.5" stroke="white" stroke-width="5" stroke-linecap="round"/>
<path d="M30 95.4344L40.6931 109.5L72.5 77" stroke="white" stroke-width="5" stroke-linecap="round"/>
<path d="M54 20.5H21V53" stroke="white" stroke-width="5" stroke-linecap="round"/>
<path d="M30 35.9344L40.6931 50L72.5 17.5" stroke="white" stroke-width="5" stroke-linecap="round"/>
</svg>
