<svg width="194" height="216" viewBox="0 0 194 216" fill="none" xmlns="http://www.w3.org/2000/svg">
<path d="M15.7399 189.171L41.6966 136.896L68.9592 165.21L15.7399 189.171Z" fill="#0EA7BF"/>
<circle cx="109" cy="101" r="85" fill="#0EA7BF"/>
<path d="M112.016 54.032C122 54.032 130.016 56.768 136.064 62.24C142.208 67.616 145.28 75.056 145.28 84.56C145.28 93.968 142.256 101.168 136.208 106.16C130.16 111.056 122.144 113.504 112.16 113.504L111.584 124.592H93.872L93.152 100.112H99.632C107.984 100.112 114.416 99.008 118.928 96.8C123.44 94.592 125.696 90.56 125.696 84.704C125.696 80.48 124.448 77.12 121.952 74.624C119.552 72.128 116.24 70.88 112.016 70.88C107.6 70.88 104.144 72.08 101.648 74.48C99.248 76.88 98.048 80.192 98.048 84.416H79.04C78.944 78.56 80.192 73.328 82.784 68.72C85.376 64.112 89.168 60.512 94.16 57.92C99.248 55.328 105.2 54.032 112.016 54.032ZM102.656 159.008C99.008 159.008 95.984 157.904 93.584 155.696C91.28 153.392 90.128 150.56 90.128 147.2C90.128 143.84 91.28 141.056 93.584 138.848C95.984 136.544 99.008 135.392 102.656 135.392C106.208 135.392 109.136 136.544 111.44 138.848C113.744 141.056 114.896 143.84 114.896 147.2C114.896 150.56 113.744 153.392 111.44 155.696C109.136 157.904 106.208 159.008 102.656 159.008Z" fill="white"/>
</svg>
