<svg width="24" height="38" viewBox="0 0 24 38" fill="none" xmlns="http://www.w3.org/2000/svg">
<path d="M11.291 22.7819C5.52026 22.2619 0.998047 17.412 0.998047 11.5058C0.998047 5.25274 6.06719 0.183594 12.3203 0.183594C18.5734 0.183594 23.6426 5.25274 23.6426 11.5058C23.6426 17.412 19.1203 22.2619 13.3496 22.7819V36.209C13.3496 36.7774 12.8888 37.2382 12.3203 37.2382C11.7518 37.2382 11.291 36.7774 11.291 36.209V22.7819ZM12.3203 20.7695C17.4365 20.7695 21.584 16.622 21.584 11.5058C21.584 6.38967 17.4365 2.24219 12.3203 2.24219C7.20412 2.24219 3.05664 6.38967 3.05664 11.5058C3.05664 16.622 7.20412 20.7695 12.3203 20.7695Z" fill="white"/>
</svg>
