<svg width="33" height="22" viewBox="0 0 33 22" fill="none" xmlns="http://www.w3.org/2000/svg">
<path d="M21.0448 0.421246C20.4602 0.994117 20.4602 1.94509 21.0333 2.52942L28.0024 9.50703H1.47863C0.66481 9.50703 0 10.1716 0 10.9965C0 11.8214 0.66481 12.486 1.47863 12.486H27.991L21.0219 19.4636C20.4488 20.0479 20.4602 20.9874 21.0333 21.5718C21.6179 22.1446 22.5464 22.1446 23.1309 21.5603L32.5759 12.0506C32.702 11.9131 32.8051 11.7642 32.8854 11.5808C32.9656 11.3975 33 11.2027 33 11.008C33 10.6184 32.851 10.2518 32.5759 9.96533L23.1309 0.455612C22.5693 -0.140187 21.6294 -0.151646 21.0448 0.421236V0.421246Z" fill="#E67112"/>
</svg>
