<svg width="38" height="27" viewBox="0 0 38 27" fill="none" xmlns="http://www.w3.org/2000/svg">
<path d="M4.37299 24.1083C4.73502 24.2837 5.14133 24.3821 5.57062 24.3821H33.0705C33.4998 24.3821 33.9061 24.2837 34.2681 24.1083L23.4357 13.9131L19.9033 16.8221C19.5648 17.1009 19.0763 17.1009 18.7378 16.8221L15.2054 13.9131L4.37299 24.1083ZM3.08297 22.8058C3.09146 22.7972 3.10015 22.7887 3.10905 22.7803L13.7788 12.7382L3.15457 3.98884C3.1314 3.96976 3.10941 3.94978 3.08861 3.929C2.91683 4.28798 2.82063 4.69004 2.82063 5.11456V21.6321C2.82063 22.052 2.91472 22.4499 3.08297 22.8058ZM35.5581 22.8058C35.7264 22.4499 35.8205 22.052 35.8205 21.6321V5.11456C35.8205 4.69004 35.7243 4.28798 35.5525 3.929C35.5317 3.94978 35.5097 3.96976 35.4865 3.98884L24.8623 12.7382L35.5321 22.7803C35.541 22.7887 35.5497 22.7972 35.5581 22.8058ZM34.2519 2.63058C33.894 2.46004 33.4934 2.36458 33.0705 2.36458H5.57062C5.14772 2.36458 4.74711 2.46004 4.38917 2.63058L19.3206 14.927L34.2519 2.63058ZM5.57062 0.53125H33.0705C35.6018 0.53125 37.6538 2.58327 37.6538 5.11456V21.6321C37.6538 24.1634 35.6018 26.2154 33.0705 26.2154H5.57062C3.03932 26.2154 0.987305 24.1634 0.987305 21.6321V5.11456C0.987305 2.58327 3.03932 0.53125 5.57062 0.53125Z" fill="white"/>
</svg>
