<svg width="39" height="32" viewBox="0 0 39 32" fill="none" xmlns="http://www.w3.org/2000/svg">
<path d="M4.83014 2.6801C3.22957 2.6801 1.93206 3.97762 1.93206 5.57819V21.0346C1.93206 22.6352 3.22957 23.9327 4.83014 23.9327H33.811C35.4115 23.9327 36.7091 22.6352 36.7091 21.0346V5.57819C36.7091 3.97762 35.4115 2.6801 33.811 2.6801H4.83014ZM4.83014 0.748047H33.811C36.4786 0.748047 38.6411 2.91057 38.6411 5.57819V21.0346C38.6411 23.7022 36.4786 25.8648 33.811 25.8648H4.83014C2.16253 25.8648 0 23.7022 0 21.0346V5.57819C0 2.91057 2.16253 0.748047 4.83014 0.748047Z" fill="white"/>
<path d="M15.4565 24.8985C15.4565 24.365 15.889 23.9325 16.4226 23.9325C16.9561 23.9325 17.3886 24.365 17.3886 24.8985V30.6947C17.3886 31.2282 16.9561 31.6607 16.4226 31.6607C15.889 31.6607 15.4565 31.2282 15.4565 30.6947V24.8985ZM21.2527 24.8985C21.2527 24.365 21.6852 23.9325 22.2187 23.9325C22.7523 23.9325 23.1848 24.365 23.1848 24.8985V30.6947C23.1848 31.2282 22.7523 31.6607 22.2187 31.6607C21.6852 31.6607 21.2527 31.2282 21.2527 30.6947V24.8985Z" fill="white"/>
<path d="M12.5583 31.6612C12.0248 31.6612 11.5923 31.2287 11.5923 30.6952C11.5923 30.1616 12.0248 29.7291 12.5583 29.7291H26.0827C26.6162 29.7291 27.0487 30.1616 27.0487 30.6952C27.0487 31.2287 26.6162 31.6612 26.0827 31.6612H12.5583Z" fill="white"/>
</svg>
