<svg width="38" height="38" viewBox="0 0 38 38" fill="none" xmlns="http://www.w3.org/2000/svg">
<path d="M2.82064 5.51204V9.19077C2.82064 23.8723 14.7224 35.7741 29.404 35.7741H33.0706C34.5894 35.7741 35.8206 34.5429 35.8206 33.0241V28.3215C35.8206 27.1378 35.0632 26.0869 33.9403 25.7126L28.1043 23.7673C26.9278 23.3751 25.6344 23.8189 24.9465 24.8507L23.6101 26.8554C22.9222 27.8872 21.6288 28.331 20.4523 27.9389L17.6558 27.0067C14.7879 26.0507 12.5876 23.7248 11.7922 20.8083L10.6426 16.5931C10.2586 15.185 11.0415 13.7222 12.4261 13.2606L13.5308 12.8924C14.6865 12.5072 15.3902 11.3384 15.1899 10.1368L14.3438 5.05995C14.1228 3.73393 12.9755 2.76204 11.6312 2.76204H5.57064C4.05186 2.76204 2.82064 3.99326 2.82064 5.51204ZM0.987305 5.51204C0.987305 2.98074 3.03933 0.928711 5.57064 0.928711H11.6312C13.8717 0.928711 15.7838 2.54852 16.1521 4.75855L16.9983 9.83536C17.3469 11.9269 16.1221 13.9612 14.1105 14.6317L13.0058 14.9999C12.5443 15.1537 12.2833 15.6414 12.4113 16.1107L13.5609 20.3259C14.195 22.651 15.9492 24.5053 18.2355 25.2674L21.0321 26.1996C21.4242 26.3303 21.8554 26.1824 22.0847 25.8385L23.4211 23.8338C24.5676 22.1141 26.7233 21.3744 28.684 22.028L34.52 23.9734C36.3916 24.5972 37.654 26.3487 37.654 28.3215V33.0241C37.654 35.5554 35.6019 37.6074 33.0706 37.6074H29.404C13.7099 37.6074 0.987305 24.8849 0.987305 9.19077V5.51204Z" fill="white"/>
</svg>
